# .PCD v0.7 - Point Cloud Data file format
VERSION 0.7
FIELDS x y z color score
SIZE 4 4 4 4 4
TYPE F F F I F
COUNT 1 1 1 1 1
WIDTH 275
HEIGHT 1
VIEWPOINT 0 0 0 1 0 0 0
POINTS 275
DATA ascii
8.0684824 3.1747968 0 0 1
-1.7635936 -29.234194 0 0 1
31.289293 3.5554423 0 0 1
17.04212 -9.3888741 0 0 1
0.94155836 -24.015553 0 0 1
2.9729648 -16.843662 0 0 1
-6.0562091 -30.452412 0 0 1
32.513641 10.852635 0 0 1
7.766964 -15.722304 0 0 1
50.826042 3.0232084 0 0 1
6.3207884 -22.554724 0 0 1
50.312225 8.3466272 0 0 1
53.070606 6.1919012 0 0 1
57.496578 12.897192 0 0 1
13.407185 -10.429732 0 0 1
45.502724 1.7353008 0 0 1
30.255039 1.8884838 0 0 1
48.090046 -0.57168239 0 0 1
5.3881783 -13.225616 0 0 1
29.058895 0.30166608 0 0 1
6.009388 -24.227165 0 0 1
28.874352 7.893064 0 0 1
5.693161 -1.8413033 0 0 1
6.2462201 1.5971339 0 0 1
48.236389 5.4174266 0 0 1
22.220964 1.5473129 0 0 1
5.797019 -25.845852 0 0 1
21.448544 -1.7129906 0 0 1
21.158855 -11.532976 0 0 1
29.082161 10.037927 0 0 1
31.485565 -5.3873272 0 0 1
10.302369 1.5422713 0 0 1
8.3783188 1.8212717 0 0 1
17.07126 -13.111112 0 0 1
42.991341 -1.2600818 0 0 1
27.629438 -0.63230312 0 0 1
9.8954468 -1.9578348 0 0 1
9.8071718 -11.406156 0 0 1
8.2280464 -1.9894893 0 0 1
6.3878322 -20.092312 0 0 1
-2.6760857 -25.843912 0 0 1
35.502003 -7.5744667 0 0 1
54.655766 8.6142321 0 0 1
27.849052 -6.3635693 0 0 1
0.54113203 -28.218634 0 0 1
43.720959 -4.7472706 0 0 1
26.842615 3.0997531 0 0 1
27.688595 12.227712 0 0 1
45.766468 -3.1734955 0 0 1
14.666728 -13.229987 0 0 1
14.313104 1.4484916 0 0 1
24.827822 1.8133242 0 0 1
24.972744 16.715559 0 0 1
13.917255 -2.0313005 0 0 1
25.611683 14.960273 0 0 1
28.485767 -9.4543056 0 0 1
37.592644 -3.6798856 0 0 1
41.23233 -5.8020716 0 0 1
28.265528 5.3210659 0 0 1
10.599982 -14.450792 0 0 1
28.880745 16.265848 0 0 1
20.751007 -8.3507862 0 0 1
7.2350326 -12.066878 0 0 1
30.308344 14.544226 0 0 1
25.799252 -1.6462919 0 0 1
28.123007 18.350355 0 0 1
7.7912226 -4.633863 0 0 1
1.9808515 1.6928751 0 0 1
32.135452 6.8376746 0 0 1
6.3725367 -17.597635 0 0 1
31.78347 5.0683489 0 0 1
2.6654525 -18.772635 0 0 1
18.320749 1.4491644 0 0 1
2.0291698 -1.8482867 0 0 1
3.7598786 -15.267148 0 0 1
17.930552 -2.0397971 0 0 1
31.387432 12.865828 0 0 1
2.905952 -23.007439 0 0 1
24.826984 -10.493998 0 0 1
0.33214015 28.117979 0 0 1
10.631783 25.120901 0 0 1
12.571311 26.414858 0 0 1
15.545869 32.060738 0 0 1
1.0080843 23.927475 0 0 1
8.4030943 23.968243 0 0 1
8.1098413 27.731369 0 0 1
10.544167 29.476898 0 0 1
13.330662 31.156214 0 0 1
3.0332208 27.171509 0 0 1
-2.6286147 29.312273 0 0 1
14.24858 27.488192 0 0 1
3.9798632 23.555918 0 0 1
5.4353614 26.914511 0 0 1
-2.3815842 25.070919 0 0 1
15.267294 52.267262 0 0 1
20.373405 51.378887 0 0 1
18.472631 51.933445 0 0 1
16.712275 52.149025 0 0 1
23.335306 49.508034 0 0 1
16.653202 48.713581 0 0 1
17.91643 48.554283 0 0 1
9.8647213 51.619572 0 0 1
8.6185827 50.872208 0 0 1
13.428536 52.281715 0 0 1
57.589336 27.672199 0 0 1
54.144436 30.051611 0 0 1
52.309536 30.955944 0 0 1
52.331554 27.18721 0 0 1
56.1563 28.988855 0 0 1
50.282032 28.140041 0 0 1
56.405838 21.640261 0 0 1
54.796852 25.674725 0 0 1
50.143925 32.17057 0 0 1
44.178741 31.204596 0 0 1
2.7992744 -20.506935 0 0 1
38.732578 -6.5198202 0 0 1
11.777042 48.602551 0 0 1
13.629735 48.867188 0 0 1
21.608761 44.820847 0 0 1
58.447449 15.194249 0 0 1
39.809265 -3.0516665 0 0 1
3.2317345 -26.820772 0 0 1
-9.9559746 -30.697201 0 0 1
32.124611 -8.4722691 0 0 1
34.600632 -4.5461793 0 0 1
23.980356 47.295876 0 0 1
-6.4201903 -26.995657 0 0 1
22.934282 42.772022 0 0 1
7.4264998 49.429676 0 0 1
48.192226 29.238014 0 0 1
53.636574 13.041421 0 0 1
56.089504 23.886448 0 0 1
6.2310662 23.598217 0 0 1
17.84971 32.360432 0 0 1
24.440878 -7.3590631 0 0 1
22.079065 50.43964 0 0 1
20.598946 46.61937 0 0 1
15.235558 48.799866 0 0 1
9.33039 45.594471 0 0 1
10.351372 47.274029 0 0 1
7.0189915 42.230865 0 0 1
59.908432 23.135916 0 0 1
19.433058 47.810246 0 0 1
41.520168 -26.876587 0 0 1
51.970249 10.77523 0 0 1
56.223286 10.811208 0 0 1
4.2097149 44.361332 0 0 1
-1.9494442 46.307037 0 0 1
6.1977353 41.140888 0 0 1
59.12973 25.503325 0 0 1
55.464855 16.933638 0 0 1
32.330845 8.6978445 0 0 1
5.1909533 45.313332 0 0 1
7.8078361 43.248394 0 0 1
6.3400412 47.437027 0 0 1
11.769818 52.198879 0 0 1
2.9821165 43.963642 0 0 1
46.026226 34.136578 0 0 1
59.192307 17.758997 0 0 1
56.104359 19.286701 0 0 1
28.282192 20.660259 0 0 1
54.76199 14.997423 0 0 1
5.3263416 40.119717 0 0 1
41.125149 32.861595 0 0 1
24.614656 18.344252 0 0 1
29.570232 23.324648 0 0 1
30.280928 24.677727 0 0 1
42.891663 35.775772 0 0 1
8.6964445 44.389156 0 0 1
38.510677 34.157852 0 0 1
30.908983 26.242777 0 0 1
59.897472 20.656713 0 0 1
40.033627 37.212616 0 0 1
36.848579 34.98558 0 0 1
30.871883 27.982386 0 0 1
24.580425 20.121094 0 0 1
24.941818 21.703186 0 0 1
37.842606 38.23201 0 0 1
26.949461 26.472918 0 0 1
26.352678 24.861525 0 0 1
30.220434 29.631884 0 0 1
25.721493 23.448654 0 0 1
32.739674 40.749607 0 0 1
35.304405 39.465721 0 0 1
26.609728 27.857494 0 0 1
31.804459 37.443157 0 0 1
28.481943 31.227669 0 0 1
34.339943 36.219639 0 0 1
29.073435 38.695206 0 0 1
25.174717 28.462839 0 0 1
22.553312 28.818171 0 0 1
26.654799 31.840685 0 0 1
26.772676 43.82885 0 0 1
28.571133 42.748703 0 0 1
24.106115 32.435379 0 0 1
27.393185 39.612621 0 0 1
25.676987 40.543655 0 0 1
24.242775 41.476093 0 0 1
20.990231 32.601044 0 0 1
30.288769 41.880539 0 0 1
25.076797 45.512398 0 0 1
16.442209 28.507107 0 0 1
19.502602 28.837807 0 0 1
64.531982 44.88908 0 0 1
67.502563 46.709263 0 0 1
1.7006198 44.039703 0 0 1
-0.08613041 45.171818 0 0 1
4.3077855 39.00919 0 0 1
-10.901492 47.119442 0 0 1
2.1650693 40.173313 0 0 1
-7.4433031 48.616646 0 0 1
-9.9964151 47.744606 0 0 1
-4.1234927 47.342167 0 0 1
-6.1231036 48.137936 0 0 1
0.43827698 41.095936 0 0 1
-3.8499734 43.504513 0 0 1
-12.176509 45.81525 0 0 1
-7.811358 44.802216 0 0 1
-6.2336798 44.519272 0 0 1
-10.393928 42.475056 0 0 1
-1.4941577 42.260178 0 0 1
-13.343781 44.318474 0 0 1
-5.762341 30.74725 0 0 1
-14.432093 42.686432 0 0 1
-16.203571 36.426231 0 0 1
-8.6851044 32.158806 0 0 1
-16.101458 38.633102 0 0 1
-15.753643 34.450958 0 0 1
-13.648936 31.358719 0 0 1
-14.87441 32.870888 0 0 1
-5.3084044 26.419334 0 0 1
-11.063707 29.557056 0 0 1
62.285778 51.492435 0 0 1
62.667404 53.953407 0 0 1
-8.4502449 27.988367 0 0 1
-15.373399 40.509983 0 0 1
-9.2471895 43.827206 0 0 1
-12.869631 36.01302 0 0 1
65.813995 45.686836 0 0 1
-11.20805 33.772945 0 0 1
-11.53968 40.834789 0 0 1
-12.550274 38.442352 0 0 1
-9.0345411 -1.9548759 0 0 1
-12.129197 -4.5335422 0 0 1
-1.7427069 1.3327678 0 0 1
-8.8033504 48.337009 0 0 1
-5.5780282 -0.0072092297 0 0 1
-14.72125 -7.6270499 0 0 1
-1.2775604 -2.151103 0 0 1
-16.568224 -11.272691 0 0 1
-4.3346529 -3.2584169 0 0 1
-9.8364429 -7.1356201 0 0 1
-12.231376 -9.8110352 0 0 1
-7.2826581 -4.8809385 0 0 1
64.904175 47.190338 0 0 1
-17.703253 -15.233905 0 0 1
-18.12731 -19.210905 0 0 1
-13.65618 -12.944847 0 0 1
-14.4313 -16.141447 0 0 1
-17.722918 -23.193733 0 0 1
-14.728953 -19.433056 0 0 1
-14.496547 -22.996311 0 0 1
-16.739641 -27.011667 0 0 1
-17.335085 -25.300423 0 0 1
-13.864936 -25.517143 0 0 1
-15.375826 -28.819517 0 0 1
-13.808764 -29.749407 0 0 1
-11.958016 -26.834328 0 0 1
-11.736473 -30.536661 0 0 1
-9.466877 -27.20986 0 0 1
53.968868 51.485516 0 0 1
53.323639 48.775139 0 0 1
62.302876 44.28484 0 0 1
3.9855001 4.1069965 0 0 1
61.588505 42.953411 0 0 1
